<?xml version="1.0" encoding="utf-8"?>
<!-- Generator: Adobe Illustrator 27.1.0, SVG Export Plug-In . SVG Version: 6.00 Build 0)  -->
<svg version="1.1" id="Layer_1" xmlns="http://www.w3.org/2000/svg" xmlns:xlink="http://www.w3.org/1999/xlink" x="0px" y="0px"
	 viewBox="0 0 841.9 277.2" style="enable-background:new 0 0 841.9 277.2;" xml:space="preserve">
<style type="text/css">
	.st0{fill:#F15C42;}
	.st1{fill:#FFFFFF;}
</style>
<path class="st0" d="M124.5,125.8c0-29.4,23.1-50.5,54.3-50.5c17.3,0,31.7,6.1,41.1,17.3L205.1,106c-6.7-7.5-15.1-11.4-25.1-11.4
	c-18.7,0-32,12.8-32,31.2s13.3,31.2,32,31.2c10,0,18.4-3.9,25.1-11.6l14.9,13.4c-9.4,11.3-23.9,17.4-41.3,17.4
	C147.7,176.2,124.5,155.2,124.5,125.8"/>
<path class="st1" d="M358,102.9h19.7v16.7h-19.1l-0.2,56.6H336l0.2-56.6h-12.1v-16.7h12.1v-3.3c0-16.9,10.4-27.9,29.5-27.9
	c6.3,0,12.8,1.3,17,4l-5.9,15.7c-2.4-1.7-5.6-2.6-9-2.6c-6.6,0-9.9,3.5-9.9,10.9L358,102.9L358,102.9z"/>
<path class="st1" d="M382.1,137.6C382.1,115,400,99,424.4,99c24.4,0,42.1,16,42.1,38.6s-17.9,38.6-42.4,38.6
	S382.1,160.2,382.1,137.6 M444,137.6c0-13-8.4-20.8-19.6-20.8s-19.7,7.8-19.7,20.8s8.6,20.8,19.7,20.8S444,150.6,444,137.6"/>
<path class="st1" d="M529.8,99v20.4c-1.9-0.1-3.3-0.3-5.1-0.3c-12.5,0-20.7,6.6-20.7,21.2l-0.2,35.9h-22.6v-76.1H503v10
	C508.5,102.8,517.8,99,529.8,99"/>
<path class="st1" d="M620.9,100.1v62.4c0,27.9-15.6,40.7-43.4,40.7c-14.6,0-28.7-3.5-37.7-10.3l8.9-15.6c6.6,5.2,17.3,8.5,27.1,8.5
	c15.7,0,22.8-7,22.8-20.5v-3.2c-5.9,6.3-14.3,9.3-24.3,9.3c-21.3,0-38.4-14.4-38.4-36.2S553.1,99,574.4,99
	c10.7,0,19.6,3.5,25.4,10.7v-9.6L620.9,100.1L620.9,100.1z M598.9,135.2c0-11-8.4-18.4-20.1-18.4c-11.7,0-20.3,7.4-20.3,18.4
	s8.6,18.4,20.3,18.4C590.5,153.6,598.9,146.2,598.9,135.2"/>
<path class="st1" d="M716.5,143.7h-58.1c2.1,9.3,10.3,15.1,22,15.1c8.1,0,14-2.4,19.3-7.2l11.8,12.5c-7.1,7.9-18.1,12.1-31.9,12.1
	c-26.6,0-43.6-16.3-43.6-38.6s17.6-38.6,41-38.6c23.4,0,40,14.8,40,38.9C716.9,139.6,716.6,141.9,716.5,143.7 M658,131.1h37.8
	c-1.6-9.5-8.9-15.6-18.9-15.6S659.6,121.5,658,131.1"/>
<g>
	<path class="st0" d="M273.4,158.4c-11.1,0-19.6-7.8-19.6-20.8s8.5-20.7,19.6-20.8V99c-24.4,0-42.2,16.1-42.2,38.6
		s17.6,38.6,42,38.6c0.1,0,0.1,0,0.2,0L273.4,158.4L273.4,158.4z"/>
	<path class="st1" d="M273.4,158.4c11.1,0,19.6-7.8,19.6-20.8s-8.5-20.7-19.6-20.8V99c24.4,0,42.2,16.1,42.2,38.6
		s-17.6,38.6-42,38.6c-0.1,0-0.1,0-0.2,0V158.4L273.4,158.4z"/>
</g>
</svg>
